<svg width="103" height="17" viewBox="0 0 103 17" fill="none" xmlns="http://www.w3.org/2000/svg">
<path d="M26.716 13.084C25.94 13.084 25.232 12.904 24.592 12.544C23.952 12.176 23.444 11.668 23.068 11.02C22.7 10.364 22.516 9.628 22.516 8.812C22.516 7.996 22.7 7.264 23.068 6.616C23.444 5.96 23.952 5.452 24.592 5.092C25.232 4.724 25.94 4.54 26.716 4.54C27.5 4.54 28.212 4.724 28.852 5.092C29.492 5.452 29.996 5.956 30.364 6.604C30.732 7.252 30.916 7.988 30.916 8.812C30.916 9.636 30.732 10.372 30.364 11.02C29.996 11.668 29.492 12.176 28.852 12.544C28.212 12.904 27.5 13.084 26.716 13.084ZM26.716 12.136C27.3 12.136 27.824 12 28.288 11.728C28.76 11.456 29.128 11.068 29.392 10.564C29.664 10.06 29.8 9.476 29.8 8.812C29.8 8.14 29.664 7.556 29.392 7.06C29.128 6.556 28.764 6.168 28.3 5.896C27.836 5.624 27.308 5.488 26.716 5.488C26.124 5.488 25.596 5.624 25.132 5.896C24.668 6.168 24.3 6.556 24.028 7.06C23.764 7.556 23.632 8.14 23.632 8.812C23.632 9.476 23.764 10.06 24.028 10.564C24.3 11.068 24.668 11.456 25.132 11.728C25.604 12 26.132 12.136 26.716 12.136ZM38.9336 13H37.8416L33.4496 6.34V13H32.3576V4.624H33.4496L37.8416 11.272V4.624H38.9336V13ZM41.8871 5.524V8.32H44.9351V9.22H41.8871V12.1H45.2951V13H40.7951V4.624H45.2951V5.524H41.8871ZM51.2147 4.636V9.928C51.2147 10.672 51.3947 11.224 51.7547 11.584C52.1227 11.944 52.6307 12.124 53.2787 12.124C53.9187 12.124 54.4187 11.944 54.7787 11.584C55.1467 11.224 55.3307 10.672 55.3307 9.928V4.636H56.4227V9.916C56.4227 10.612 56.2827 11.2 56.0027 11.68C55.7227 12.152 55.3427 12.504 54.8627 12.736C54.3907 12.968 53.8587 13.084 53.2667 13.084C52.6747 13.084 52.1387 12.968 51.6587 12.736C51.1867 12.504 50.8107 12.152 50.5307 11.68C50.2587 11.2 50.1227 10.612 50.1227 9.916V4.636H51.2147ZM64.8203 13H63.7283L59.3363 6.34V13H58.2443V4.624H59.3363L63.7283 11.272V4.624H64.8203V13ZM67.7738 4.636V13H66.6818V4.636H67.7738ZM76.5469 4.636L73.3909 13H72.1309L68.9749 4.636H70.1389L72.7669 11.848L75.3949 4.636H76.5469ZM78.8363 5.524V8.32H81.8843V9.22H78.8363V12.1H82.2443V13H77.7443V4.624H82.2443V5.524H78.8363ZM88.3007 13L86.3087 9.58H84.9887V13H83.8967V4.636H86.5967C87.2287 4.636 87.7607 4.744 88.1927 4.96C88.6327 5.176 88.9607 5.468 89.1767 5.836C89.3927 6.204 89.5007 6.624 89.5007 7.096C89.5007 7.672 89.3327 8.18 88.9967 8.62C88.6687 9.06 88.1727 9.352 87.5087 9.496L89.6087 13H88.3007ZM84.9887 8.704H86.5967C87.1887 8.704 87.6327 8.56 87.9287 8.272C88.2247 7.976 88.3727 7.584 88.3727 7.096C88.3727 6.6 88.2247 6.216 87.9287 5.944C87.6407 5.672 87.1967 5.536 86.5967 5.536H84.9887V8.704ZM93.8494 13.084C93.2974 13.084 92.8014 12.988 92.3614 12.796C91.9294 12.596 91.5894 12.324 91.3414 11.98C91.0934 11.628 90.9654 11.224 90.9574 10.768H92.1214C92.1614 11.16 92.3214 11.492 92.6014 11.764C92.8894 12.028 93.3054 12.16 93.8494 12.16C94.3694 12.16 94.7774 12.032 95.0734 11.776C95.3774 11.512 95.5294 11.176 95.5294 10.768C95.5294 10.448 95.4414 10.188 95.2654 9.988C95.0894 9.788 94.8694 9.636 94.6054 9.532C94.3414 9.428 93.9854 9.316 93.5374 9.196C92.9854 9.052 92.5414 8.908 92.2054 8.764C91.8774 8.62 91.5934 8.396 91.3534 8.092C91.1214 7.78 91.0054 7.364 91.0054 6.844C91.0054 6.388 91.1214 5.984 91.3534 5.632C91.5854 5.28 91.9094 5.008 92.3254 4.816C92.7494 4.624 93.2334 4.528 93.7774 4.528C94.5614 4.528 95.2014 4.724 95.6974 5.116C96.2014 5.508 96.4854 6.028 96.5494 6.676H95.3494C95.3094 6.356 95.1414 6.076 94.8454 5.836C94.5494 5.588 94.1574 5.464 93.6694 5.464C93.2134 5.464 92.8414 5.584 92.5534 5.824C92.2654 6.056 92.1214 6.384 92.1214 6.808C92.1214 7.112 92.2054 7.36 92.3734 7.552C92.5494 7.744 92.7614 7.892 93.0094 7.996C93.2654 8.092 93.6214 8.204 94.0774 8.332C94.6294 8.484 95.0734 8.636 95.4094 8.788C95.7454 8.932 96.0334 9.16 96.2734 9.472C96.5134 9.776 96.6334 10.192 96.6334 10.72C96.6334 11.128 96.5254 11.512 96.3094 11.872C96.0934 12.232 95.7734 12.524 95.3494 12.748C94.9254 12.972 94.4254 13.084 93.8494 13.084ZM99.3324 5.524V8.32H102.38V9.22H99.3324V12.1H102.74V13H98.2404V4.624H102.74V5.524H99.3324Z" fill="black"/>
<path d="M15.0534 7.85402C14.9278 8.03819 14.7897 8.21148 14.639 8.37388L15.8663 9.51239C16.0738 9.28859 16.2644 9.04962 16.4363 8.79747L15.0534 7.85402ZM14.639 8.37388C14.2242 8.82264 13.7209 9.18056 13.1609 9.42507C12.6008 9.66958 11.9962 9.79537 11.3851 9.7945V11.4688C12.2266 11.4697 13.0592 11.2964 13.8305 10.9597C14.6017 10.623 15.2949 10.1302 15.8663 9.51239L14.639 8.37388ZM11.3851 9.7945C10.2083 9.7945 9.07982 9.32705 8.24775 8.49499C7.41569 7.66292 6.94824 6.5344 6.94824 5.35768H5.27396C5.27396 6.97844 5.91781 8.53282 7.06386 9.67888C8.20992 10.8249 9.7643 11.4688 11.3851 11.4688V9.7945ZM6.94824 5.35768C6.94824 4.07183 7.49405 2.91491 8.36886 2.10373L7.23035 0.876482C6.61265 1.44797 6.11995 2.14114 5.78325 2.91236C5.44655 3.68359 5.27315 4.51616 5.27396 5.35768H6.94824ZM8.36886 2.10373C8.53139 1.95297 8.70488 1.81446 8.88788 1.68934L7.94527 0.306392C7.69315 0.478119 7.45419 0.669234 7.23035 0.876482L8.36886 2.10373ZM7.70082 1.70776C7.92099 1.68516 8.14451 1.67427 8.37137 1.67427V0C8.08926 0 7.81049 0.0133942 7.53507 0.0410197L7.70082 1.70776ZM1.67427 8.37137C1.67442 6.7113 2.29104 5.11044 3.40455 3.87922C4.51806 2.648 6.04912 1.87416 7.70082 1.70776L7.53423 0.0418568C3.30418 0.460425 0 4.02914 0 8.37137H1.67427ZM8.37137 15.0685C6.59519 15.0685 4.89176 14.3629 3.63581 13.1069C2.37986 11.851 1.67427 10.1475 1.67427 8.37137H0C0 12.9949 3.74786 16.7427 8.37137 16.7427V15.0685ZM15.0685 8.37137C15.0685 10.1475 14.3629 11.851 13.1069 13.1069C11.851 14.3629 10.1476 15.0685 8.37137 15.0685V16.7427C12.9949 16.7427 16.7427 12.9949 16.7427 8.37137H15.0685ZM8.88872 1.68934C9.05127 1.57783 9.17398 1.41736 9.23901 1.23128C9.30403 1.04519 9.30797 0.843214 9.25025 0.654737C9.19253 0.466259 9.07617 0.301122 8.91809 0.183362C8.76002 0.0656016 8.56848 0.00136425 8.37137 0V1.67427C8.27465 1.74035 8.16378 1.78283 8.04767 1.79829C7.93155 1.81376 7.81343 1.80179 7.70279 1.76334C7.59214 1.72488 7.49205 1.66102 7.41055 1.57688C7.32906 1.49274 7.26842 1.39067 7.23352 1.27885C7.19862 1.16703 7.19043 1.04859 7.20959 0.933026C7.22876 0.817466 7.27476 0.708011 7.34389 0.613447C7.41302 0.518883 7.50336 0.441845 7.60765 0.38852C7.71195 0.335194 7.82729 0.307065 7.94443 0.306392L8.88872 1.68934ZM16.4363 8.79747C16.3462 8.93047 16.2157 9.03092 16.064 9.08398C15.9124 9.13704 15.7477 9.13989 15.5943 9.09211C15.4409 9.04433 15.3069 8.94845 15.2122 8.81865C15.1175 8.68885 15.0671 8.53203 15.0685 8.37137H16.7427C16.8249 8.25153 16.8778 8.11403 16.897 7.96997C16.9162 7.82592 16.9012 7.67938 16.8533 7.54218C16.8054 7.40499 16.7258 7.28102 16.621 7.18028C16.5163 7.07954 16.3893 7.00487 16.2504 6.96232C16.1114 6.91977 15.9644 6.91052 15.8212 6.93533C15.678 6.96014 15.5427 7.0183 15.4261 7.10512C15.3096 7.19194 15.2151 7.30497 15.1504 7.43508C15.0856 7.56518 15.0524 7.7087 15.0534 7.85402L16.4363 8.79747Z" fill="black"/>
</svg>
